<?xml version="1.0" encoding="UTF-8"?>
<svg version="1.1" xmlns="http://www.w3.org/2000/svg" width="1024" height="1024">
<path d="M0 0 C337.92 0 675.84 0 1024 0 C1024 337.92 1024 675.84 1024 1024 C686.08 1024 348.16 1024 0 1024 C0 686.08 0 348.16 0 0 Z " fill="#F0F0EC" transform="translate(0,0)"/>
<path d="M0 0 C0.43699219 -1.2684375 0.43699219 -1.2684375 0.8828125 -2.5625 C3.42777115 -9.60515286 6.00143134 -15.40754199 11 -21 C11.50015625 -21.60328125 12.0003125 -22.2065625 12.515625 -22.828125 C18.51674312 -29.52840251 27.54286754 -34.48793509 36.58911133 -35.20532227 C45.72460777 -35.54439159 54.86036285 -35.80752234 64 -36 C64.82034729 -36.01780518 65.64069458 -36.03561035 66.48590088 -36.05395508 C71.6772064 -36.16273073 76.86789782 -36.24076018 82.06015015 -36.28610229 C83.7523134 -36.30351822 85.4444222 -36.32772483 87.13638306 -36.35916138 C103.07547471 -36.64047319 114.25574525 -34.17937042 126.15625 -22.96875 C133.63092036 -15.27095515 138.19324698 -5.24598595 138.06401062 5.53834534 C138.04834549 7.22979424 138.04834549 7.22979424 138.03236389 8.95541382 C138.01612473 10.18901642 137.99988556 11.42261902 137.9831543 12.69360352 C137.96382565 14.69457427 137.94452299 16.69554543 137.92617857 18.69652545 C137.91300441 20.11704149 137.89921867 21.53755196 137.88486516 22.95805657 C137.79356987 32.13501943 137.77620599 41.31227139 137.75393808 50.48961556 C137.73173781 59.40144535 137.68777438 68.31175383 137.5715332 77.22290039 C137.47917032 84.31420545 137.43840286 91.40382998 137.45439845 98.49574417 C137.46103516 102.23554402 137.44453088 105.97146756 137.36514854 109.71051216 C136.94903562 130.30954068 140.54954614 144.30121047 151.27311134 161.927351 C183.0439261 218.45708838 190.33138605 301.90499196 173.91015625 364.25 C168.79737394 382.45660023 159.58847292 401.19920999 142.625 410.9375 C140 412 140 412 138 412 C138.03664009 412.87726242 138.03664009 412.87726242 138.07402039 413.77224731 C140.14389434 465.75815745 140.14389434 465.75815745 129.79426575 487.8160553 C125.69752924 496.5996557 122.47756407 505.74364956 119.09069824 514.81756592 C117.06203583 520.23245883 114.99594602 525.63302644 112.93359375 531.03515625 C108.6053616 542.39327634 104.30738797 553.76265965 100.01849365 565.13568115 C98.95025219 567.96621041 97.88006703 570.79599605 96.80908203 573.62548828 C96.1266167 575.42870681 95.44416203 577.23192938 94.76171875 579.03515625 C94.27242889 580.32788452 94.27242889 580.32788452 93.77325439 581.64672852 C92.0406989 586.22939678 90.32114817 590.81648506 88.62086487 595.41122437 C87.50476793 598.42279394 86.3758069 601.42954926 85.25 604.4375 C84.8799585 605.45521484 84.50991699 606.47292969 84.12866211 607.52148438 C81.99453756 613.18338674 79.73470788 619.13264606 74 622 C71.828125 622.2734375 71.828125 622.2734375 69.25 622.375 C68.40953125 622.42398438 67.5690625 622.47296875 66.703125 622.5234375 C62.90040203 621.78707207 60.54456301 619.80530192 58 617 C56.40264781 614.24030547 55.33314309 611.35268977 54.25 608.359375 C53.91838867 607.48810974 53.58677734 606.61684448 53.24511719 605.71917725 C52.14627462 602.81892536 51.07330765 599.90978806 50 597 C49.23072602 594.95579271 48.45985675 592.91218515 47.6875 590.86914062 C45.56097761 585.22784291 43.45846181 579.57788784 41.3626709 573.92510986 C39.23020764 568.17387766 37.09081169 562.42522705 34.95180511 556.67642593 C34.198736 554.65226538 33.44594644 552.628001 32.69317627 550.60372925 C27.00594713 535.31364673 21.28085451 520.03777075 15.55187988 504.76329041 C14.75178591 502.62976229 13.95201103 500.49611484 13.15234375 498.36242676 C11.89390214 495.00465665 10.63489841 491.64709792 9.37540436 488.28972244 C8.69126435 486.4657559 8.00758228 484.64161762 7.32391357 482.81747437 C6.91377014 481.72480255 6.50362671 480.63213074 6.08105469 479.50634766 C5.725495 478.55845367 5.3699353 477.61055969 5.00360107 476.63394165 C4.04223398 474.01488311 4.04223398 474.01488311 2.88412476 471.6101532 C1.73630109 468.22149613 1.76059358 465.30815992 1.77294922 461.73120117 C1.77265717 461.01846039 1.77236511 460.3057196 1.77206421 459.57138062 C1.77345143 457.22845044 1.78898364 454.88584299 1.8046875 452.54296875 C1.8084198 450.91343866 1.81126575 449.28390631 1.81326294 447.65437317 C1.82088233 443.37506871 1.8405162 439.095901 1.8626709 434.81665039 C1.88316589 430.44614512 1.89227246 426.07561765 1.90234375 421.70507812 C1.92376375 413.13665615 1.95787915 404.56834511 2 396 C-1.21390574 396.44177669 -4.42539982 396.89920076 -7.63671875 397.359375 C-8.54192261 397.4836084 -9.44712646 397.6078418 -10.37976074 397.73583984 C-20.64786103 399.22444522 -28.51667915 402.67083956 -35 411 C-43.74959104 423.55138839 -46.98784598 436.81050058 -44.69091797 452.05078125 C-43.00276114 461.20951716 -39.89218146 469.06004573 -35 477 C-19.085611 504.03177276 -9.36359747 532.05297609 -17.16381836 563.75219727 C-21.7699446 580.78261506 -29.67572722 595.29200444 -42 608 C-42.80824219 608.91845703 -42.80824219 608.91845703 -43.6328125 609.85546875 C-64.60106547 632.87839977 -100.65888161 638.14549104 -130 640 C-137.7267915 640.33219259 -145.45493191 640.34065841 -153.1875 640.3125 C-154.2098172 640.31100952 -155.2321344 640.30951904 -156.28543091 640.3079834 C-172.39174225 640.26593487 -188.06450898 639.48081457 -204 637 C-206.00118175 636.71789508 -208.00248493 636.4366502 -210.00390625 636.15625 C-248.83580181 630.45236158 -286.33875966 617.24275807 -321 599 C-321.74749512 598.61295898 -322.49499023 598.22591797 -323.26513672 597.82714844 C-342.45695551 587.84850181 -360.33884618 575.78978542 -377 562 C-377.53882813 561.55736816 -378.07765625 561.11473633 -378.6328125 560.65869141 C-393.37110167 548.51793839 -407.63213143 535.57458371 -420 521 C-420.78632813 520.1028125 -421.57265625 519.205625 -422.3828125 518.28125 C-441.76176391 496.02813326 -456.81470775 471.31624272 -470 445 C-470.37463379 444.2692627 -470.74926758 443.53852539 -471.13525391 442.78564453 C-484.62438306 416.44671144 -493.21253083 387.13308649 -498 358 C-498.17805176 356.9181543 -498.35610352 355.83630859 -498.53955078 354.72167969 C-499.10414745 351.23333179 -499.64991286 347.74260747 -500.1875 344.25 C-500.35459473 343.1863623 -500.52168945 342.12272461 -500.69384766 341.02685547 C-502.84665005 326.50264489 -503.23599468 311.85107434 -503.25 297.1875 C-503.25151062 296.06438416 -503.25151062 296.06438416 -503.25305176 294.9185791 C-503.2397879 280.14030233 -502.11355388 265.63472526 -500 251 C-499.85546387 249.99582031 -499.71092773 248.99164063 -499.56201172 247.95703125 C-487.68111969 168.27742759 -445.16659024 89.81709959 -381 40 C-379.87374152 39.07602903 -378.75021428 38.14872248 -377.62890625 37.21875 C-368.19653861 29.44002681 -358.31177108 22.56074934 -348 16 C-347.37689941 15.60216309 -346.75379883 15.20432617 -346.11181641 14.79443359 C-263.01612616 -37.79864114 -160.41688454 -49.3192912 0 0 Z " fill="#F5F0E3" transform="translate(671,200)"/>
<path d="M0 0 C0.43699219 -1.2684375 0.43699219 -1.2684375 0.8828125 -2.5625 C3.42777115 -9.60515286 6.00143134 -15.40754199 11 -21 C11.50015625 -21.60328125 12.0003125 -22.2065625 12.515625 -22.828125 C18.51674312 -29.52840251 27.54286754 -34.48793509 36.58911133 -35.20532227 C45.72460777 -35.54439159 54.86036285 -35.80752234 64 -36 C64.82034729 -36.01780518 65.64069458 -36.03561035 66.48590088 -36.05395508 C71.6772064 -36.16273073 76.86789782 -36.24076018 82.06015015 -36.28610229 C83.7523134 -36.30351822 85.4444222 -36.32772483 87.13638306 -36.35916138 C103.07547471 -36.64047319 114.25574525 -34.17937042 126.15625 -22.96875 C133.63092036 -15.27095515 138.19324698 -5.24598595 138.06401062 5.53834534 C138.04834549 7.22979424 138.04834549 7.22979424 138.03236389 8.95541382 C138.01612473 10.18901642 137.99988556 11.42261902 137.9831543 12.69360352 C137.96382565 14.69457427 137.94452299 16.69554543 137.92617857 18.69652545 C137.91300441 20.11704149 137.89921867 21.53755196 137.88486516 22.95805657 C137.79356987 32.13501943 137.77620599 41.31227139 137.75393808 50.48961556 C137.73173781 59.40144535 137.68777438 68.31175383 137.5715332 77.22290039 C137.47917032 84.31420545 137.43840286 91.40382998 137.45439845 98.49574417 C137.46103516 102.23554402 137.44453088 105.97146756 137.36514854 109.71051216 C136.94903562 130.30954068 140.54954614 144.30121047 151.27311134 161.927351 C183.0439261 218.45708838 190.33138605 301.90499196 173.91015625 364.25 C168.79737394 382.45660023 159.58847292 401.19920999 142.625 410.9375 C140 412 140 412 138 412 C138.03664009 412.87726242 138.03664009 412.87726242 138.07402039 413.77224731 C140.14389434 465.75815745 140.14389434 465.75815745 129.79426575 487.8160553 C125.69752924 496.5996557 122.47756407 505.74364956 119.09069824 514.81756592 C117.06203583 520.23245883 114.99594602 525.63302644 112.93359375 531.03515625 C108.6053616 542.39327634 104.30738797 553.76265965 100.01849365 565.13568115 C98.95025219 567.96621041 97.88006703 570.79599605 96.80908203 573.62548828 C96.1266167 575.42870681 95.44416203 577.23192938 94.76171875 579.03515625 C94.27242889 580.32788452 94.27242889 580.32788452 93.77325439 581.64672852 C92.0406989 586.22939678 90.32114817 590.81648506 88.62086487 595.41122437 C87.50476793 598.42279394 86.3758069 601.42954926 85.25 604.4375 C84.8799585 605.45521484 84.50991699 606.47292969 84.12866211 607.52148438 C81.99453756 613.18338674 79.73470788 619.13264606 74 622 C71.828125 622.2734375 71.828125 622.2734375 69.25 622.375 C68.40953125 622.42398438 67.5690625 622.47296875 66.703125 622.5234375 C62.90040203 621.78707207 60.54456301 619.80530192 58 617 C56.40264781 614.24030547 55.33314309 611.35268977 54.25 608.359375 C53.91838867 607.48810974 53.58677734 606.61684448 53.24511719 605.71917725 C52.14627462 602.81892536 51.07330765 599.90978806 50 597 C49.23072602 594.95579271 48.45985675 592.91218515 47.6875 590.86914062 C45.56097761 585.22784291 43.45846181 579.57788784 41.3626709 573.92510986 C39.23020764 568.17387766 37.09081169 562.42522705 34.95180511 556.67642593 C34.198736 554.65226538 33.44594644 552.628001 32.69317627 550.60372925 C27.00594713 535.31364673 21.28085451 520.03777075 15.55187988 504.76329041 C14.75178591 502.62976229 13.95201103 500.49611484 13.15234375 498.36242676 C11.89390214 495.00465665 10.63489841 491.64709792 9.37540436 488.28972244 C8.69126435 486.4657559 8.00758228 484.64161762 7.32391357 482.81747437 C6.91377014 481.72480255 6.50362671 480.63213074 6.08105469 479.50634766 C5.725495 478.55845367 5.3699353 477.61055969 5.00360107 476.63394165 C4.04223398 474.01488311 4.04223398 474.01488311 2.88412476 471.6101532 C1.73630109 468.22149613 1.76059358 465.30815992 1.77294922 461.73120117 C1.77265717 461.01846039 1.77236511 460.3057196 1.77206421 459.57138062 C1.77345143 457.22845044 1.78898364 454.88584299 1.8046875 452.54296875 C1.8084198 450.91343866 1.81126575 449.28390631 1.81326294 447.65437317 C1.82088233 443.37506871 1.8405162 439.095901 1.8626709 434.81665039 C1.88316589 430.44614512 1.89227246 426.07561765 1.90234375 421.70507812 C1.92376375 413.13665615 1.95787915 404.56834511 2 396 C-1.21390574 396.44177669 -4.42539982 396.89920076 -7.63671875 397.359375 C-8.54192261 397.4836084 -9.44712646 397.6078418 -10.37976074 397.73583984 C-20.64786103 399.22444522 -28.51667915 402.67083956 -35 411 C-43.74959104 423.55138839 -46.98784598 436.81050058 -44.69091797 452.05078125 C-43.00276114 461.20951716 -39.89218146 469.06004573 -35 477 C-19.085611 504.03177276 -9.36359747 532.05297609 -17.16381836 563.75219727 C-21.7699446 580.78261506 -29.67572722 595.29200444 -42 608 C-42.80824219 608.91845703 -42.80824219 608.91845703 -43.6328125 609.85546875 C-64.60106547 632.87839977 -100.65888161 638.14549104 -130 640 C-137.7267915 640.33219259 -145.45493191 640.34065841 -153.1875 640.3125 C-154.2098172 640.31100952 -155.2321344 640.30951904 -156.28543091 640.3079834 C-172.39174225 640.26593487 -188.06450898 639.48081457 -204 637 C-206.00118175 636.71789508 -208.00248493 636.4366502 -210.00390625 636.15625 C-248.83580181 630.45236158 -286.33875966 617.24275807 -321 599 C-321.74749512 598.61295898 -322.49499023 598.22591797 -323.26513672 597.82714844 C-342.45695551 587.84850181 -360.33884618 575.78978542 -377 562 C-377.53882813 561.55736816 -378.07765625 561.11473633 -378.6328125 560.65869141 C-393.37110167 548.51793839 -407.63213143 535.57458371 -420 521 C-420.78632813 520.1028125 -421.57265625 519.205625 -422.3828125 518.28125 C-441.76176391 496.02813326 -456.81470775 471.31624272 -470 445 C-470.37463379 444.2692627 -470.74926758 443.53852539 -471.13525391 442.78564453 C-484.62438306 416.44671144 -493.21253083 387.13308649 -498 358 C-498.17805176 356.9181543 -498.35610352 355.83630859 -498.53955078 354.72167969 C-499.10414745 351.23333179 -499.64991286 347.74260747 -500.1875 344.25 C-500.35459473 343.1863623 -500.52168945 342.12272461 -500.69384766 341.02685547 C-502.84665005 326.50264489 -503.23599468 311.85107434 -503.25 297.1875 C-503.25151062 296.06438416 -503.25151062 296.06438416 -503.25305176 294.9185791 C-503.2397879 280.14030233 -502.11355388 265.63472526 -500 251 C-499.85546387 249.99582031 -499.71092773 248.99164063 -499.56201172 247.95703125 C-487.68111969 168.27742759 -445.16659024 89.81709959 -381 40 C-379.87374152 39.07602903 -378.75021428 38.14872248 -377.62890625 37.21875 C-368.19653861 29.44002681 -358.31177108 22.56074934 -348 16 C-347.37689941 15.60216309 -346.75379883 15.20432617 -346.11181641 14.79443359 C-263.01612616 -37.79864114 -160.41688454 -49.3192912 0 0 Z M-367 57 C-367.52674316 57.4223291 -368.05348633 57.8446582 -368.59619141 58.27978516 C-377.17129694 65.17963051 -385.0159244 72.80875161 -392.8125 80.5625 C-393.30064178 81.04537476 -393.78878357 81.52824951 -394.29171753 82.02575684 C-400.98975204 88.66783462 -407.16503962 95.58445703 -413 103 C-413.57435791 103.72034424 -414.14871582 104.44068848 -414.74047852 105.18286133 C-446.69327836 145.48690557 -467.54317661 192.74971273 -476.8125 243.3125 C-477.1050769 244.90082642 -477.1050769 244.90082642 -477.40356445 246.52124023 C-480.44517914 264.20070944 -481.38212827 281.90101886 -481.3125 299.8125 C-481.31100952 300.77078705 -481.30951904 301.7290741 -481.3079834 302.71640015 C-481.26978526 316.42283381 -480.80794181 329.85412066 -478.44873047 343.38720703 C-477.98187248 346.10554992 -477.5829187 348.82844694 -477.19140625 351.55859375 C-469.08532817 405.56812774 -444.36992025 458.46577893 -409 500 C-408.13571486 501.04865258 -407.27248595 502.09817633 -406.41015625 503.1484375 C-395.65749725 516.11637387 -383.84868478 528.63227627 -370.546875 539.01171875 C-367.74740504 541.19719453 -365.07011628 543.49979886 -362.375 545.8125 C-350.13618359 556.00099922 -336.83255634 564.65986192 -323.13183594 572.74023438 C-321.16552044 573.90218902 -319.21156634 575.08273293 -317.2578125 576.265625 C-298.78076035 587.24673628 -278.47455154 595.56256933 -258 602 C-256.62328125 602.43820068 -256.62328125 602.43820068 -255.21875 602.88525391 C-226.34430254 611.981287 -195.83496792 618.07168721 -165.48046875 618.203125 C-163.88976311 618.21167511 -163.88976311 618.21167511 -162.266922 618.22039795 C-160.03415908 618.22977668 -157.80138276 618.23635325 -155.56860352 618.24023438 C-152.23362574 618.24986678 -148.89928507 618.28092996 -145.56445312 618.3125 C-114.47396256 618.46600238 -80.25687517 615.41101335 -56.7421875 592.83203125 C-42.23948379 577.76396791 -35.6148384 558.47233636 -35.85546875 537.734375 C-36.58737148 518.82359091 -42.98817704 503.8891364 -52.75390625 488.03466797 C-61.89956914 473.1012913 -66.29207022 459.82345748 -66.4375 442.1875 C-66.45296875 440.63119873 -66.45296875 440.63119873 -66.46875 439.04345703 C-66.38732542 431.94934017 -65.2031092 425.73305918 -63 419 C-62.47019531 417.37771484 -62.47019531 417.37771484 -61.9296875 415.72265625 C-56.10730726 401.03731943 -44.64786422 386.60866501 -30 380 C-19.2667939 376.11962885 -9.60966307 375.68292136 2 375 C2 259.5 2 144 2 25 C-15.01628641 16.80697321 -31.27912152 9.13191477 -49 3 C-49.78117187 2.7210791 -50.56234375 2.4421582 -51.3671875 2.15478516 C-76.60870897 -6.81813289 -103.46329114 -11.08846832 -130 -14 C-130.87470947 -14.103125 -131.74941895 -14.20625 -132.65063477 -14.3125 C-141.51466016 -15.25916811 -150.40768724 -15.24366427 -159.3125 -15.25 C-160.59731262 -15.25101212 -160.59731262 -15.25101212 -161.90808105 -15.25204468 C-236.71161212 -15.15916956 -308.97671841 9.64611438 -367 57 Z " fill="#343741" transform="translate(671,200)"/>
<path d="M0 0 C1.09488739 -0.00960754 2.18977478 -0.01921509 3.31784058 -0.02911377 C4.48670807 -0.03336365 5.65557556 -0.03761353 6.85986328 -0.04199219 C8.07537872 -0.04769226 9.29089417 -0.05339233 10.54324341 -0.05926514 C13.11020034 -0.06869468 15.67716927 -0.07524097 18.24414062 -0.07910156 C22.15923234 -0.08881523 26.07380069 -0.11986235 29.98876953 -0.15136719 C32.48746434 -0.1578971 34.98616289 -0.16314762 37.48486328 -0.16699219 C38.64968231 -0.17933899 39.81450134 -0.19168579 41.01461792 -0.20440674 C48.35641692 -0.18439799 54.78925506 0.11560972 60.58251953 5.13378906 C61.13037109 5.8234375 61.67822266 6.51308594 62.24267578 7.22363281 C62.80857422 7.91585937 63.37447266 8.60808594 63.95751953 9.32128906 C66.23389465 12.42903596 66.42981295 14.28120787 66.42822361 18.09243965 C66.43021466 19.14144042 66.43220571 20.19044119 66.43425709 21.27122986 C66.43134425 22.43268867 66.42843141 23.59414747 66.4254303 24.790802 C66.42628472 26.01757656 66.42713915 27.24435112 66.42801946 28.50830066 C66.42938625 31.9242753 66.42624405 35.34019318 66.4212414 38.75616097 C66.41693615 42.43577847 66.41838338 46.11539412 66.41914368 49.79501343 C66.41966886 56.17380314 66.41652261 62.55258264 66.41090584 68.93136978 C66.40279013 78.15410533 66.40017554 87.37683593 66.39891785 96.59957467 C66.39672744 111.56166586 66.39006765 126.52375161 66.38061523 141.48583984 C66.37144083 156.02294894 66.36436013 170.56005656 66.36010742 185.09716797 C66.3598447 185.9927412 66.35958197 186.88831442 66.35931129 187.81102623 C66.35800628 192.30370633 66.35674257 196.79638644 66.35549939 201.28906655 C66.34512712 238.57976014 66.326689 275.87044366 66.30517578 313.16113281 C36.27517578 313.16113281 6.24517578 313.16113281 -24.69482422 313.16113281 C-24.80505502 275.20646185 -24.89737437 237.25194186 -24.95015087 199.29715663 C-24.95640439 194.81610544 -24.962876 190.33505459 -24.96948242 185.85400391 C-24.97079397 184.96190857 -24.97210553 184.06981324 -24.97345682 183.15068471 C-24.99521251 168.70658302 -25.03463494 154.26258085 -25.0805882 139.81853819 C-25.1273483 124.99726312 -25.15511867 110.17604017 -25.16526669 95.35469437 C-25.17212679 86.2093162 -25.19379243 77.06421931 -25.23440655 67.91892773 C-25.26083941 61.64737933 -25.268824 55.37597632 -25.26233111 49.10437626 C-25.25912901 45.48606614 -25.26403205 41.86824749 -25.29085159 38.2500248 C-25.31973513 34.32462362 -25.30975535 30.39986104 -25.2960968 26.47436523 C-25.31066101 25.33427443 -25.32522522 24.19418362 -25.34023076 23.0195446 C-25.27520938 16.11285695 -24.22216154 11.49442554 -19.69482422 6.16113281 C-17.66748047 4.32128906 -17.66748047 4.32128906 -15.75732422 3.22363281 C-15.12955078 2.84335938 -14.50177734 2.46308594 -13.85498047 2.07128906 C-9.42953889 0.20668167 -4.75050673 0.03388044 0 0 Z " fill="#FDDA38" transform="translate(719.69482421875,185.8388671875)"/>
<path d="M0 0 C30.03 0 60.06 0 91 0 C91 50.82 91 101.64 91 154 C60.97 154 30.94 154 0 154 C0 103.18 0 52.36 0 0 Z " fill="#4A9ED0" transform="translate(695,499)"/>
<path d="M0 0 C1.09488739 -0.00960754 2.18977478 -0.01921509 3.31784058 -0.02911377 C4.48670807 -0.03336365 5.65557556 -0.03761353 6.85986328 -0.04199219 C8.07537872 -0.04769226 9.29089417 -0.05339233 10.54324341 -0.05926514 C13.11020034 -0.06869468 15.67716927 -0.07524097 18.24414062 -0.07910156 C22.15923234 -0.08881523 26.07380069 -0.11986235 29.98876953 -0.15136719 C32.48746434 -0.1578971 34.98616289 -0.16314762 37.48486328 -0.16699219 C38.64968231 -0.17933899 39.81450134 -0.19168579 41.01461792 -0.20440674 C48.35641692 -0.18439799 54.78925506 0.11560972 60.58251953 5.13378906 C61.13037109 5.8234375 61.67822266 6.51308594 62.24267578 7.22363281 C62.80857422 7.91585937 63.37447266 8.60808594 63.95751953 9.32128906 C66.37870674 12.62673595 66.42904263 14.68706504 66.4254303 18.75454712 C66.42749229 20.53826469 66.42749229 20.53826469 66.42959595 22.35801697 C66.42420303 24.32491234 66.42420303 24.32491234 66.41870117 26.33154297 C66.41841922 27.72098285 66.4185772 29.11042288 66.41914368 30.49986267 C66.41943132 34.27856232 66.41353991 38.05723042 66.40656972 41.83592272 C66.4003307 45.78240837 66.39973195 49.7288947 66.39854431 53.67538452 C66.39543262 61.15163561 66.3872214 68.62787213 66.37719482 76.1041168 C66.36394196 86.20464127 66.35853247 96.30516971 66.3526926 106.40570068 C66.34328141 122.32418898 66.32336141 138.24264652 66.30517578 154.16113281 C36.27517578 154.16113281 6.24517578 154.16113281 -24.69482422 154.16113281 C-24.89633939 119.37513617 -24.89633939 119.37513617 -24.93896484 104.78613281 C-24.9686208 94.71699272 -25.00346362 84.64806199 -25.07202148 74.57910156 C-25.1219305 67.24555091 -25.15413273 59.91217027 -25.16526669 52.57845449 C-25.17177287 48.69688965 -25.18701311 44.81581111 -25.2234745 40.93440247 C-25.25755312 37.27682031 -25.26785369 33.6199222 -25.26036263 29.96219635 C-25.26238211 27.98840077 -25.28921508 26.01467876 -25.31692505 24.04107666 C-25.27497877 16.78501545 -24.5850875 11.721054 -19.69482422 6.16113281 C-17.66748047 4.32128906 -17.66748047 4.32128906 -15.75732422 3.22363281 C-15.12955078 2.84335938 -14.50177734 2.46308594 -13.85498047 2.07128906 C-9.42953889 0.20668167 -4.75050673 0.03388044 0 0 Z " fill="#FDA72C" transform="translate(719.69482421875,185.8388671875)"/>
<path d="M0 0 C12.92352564 10.06985373 21.75578757 24.48841016 24.640625 40.7109375 C26.29190459 60.11985394 22.76233477 77.3001258 10.890625 93.0234375 C-1.66330015 107.6656829 -17.93721502 115.40258883 -37.04296875 117.0234375 C-54.65923651 117.61003539 -70.60683622 111.31129491 -84.015625 99.9921875 C-96.89257799 87.45861993 -104.16616396 70.89091122 -104.71118164 52.99584961 C-104.88281036 35.62521644 -99.33458699 20.4409826 -87.86328125 7.2421875 C-63.53388166 -17.35289976 -27.88363662 -19.63847525 0 0 Z " fill="#343842" transform="translate(486.359375,259.2890625)"/>
<path d="M0 0 C0.99668701 0.00499512 1.99337402 0.00999023 3.02026367 0.01513672 C21.18809831 0.43903824 34.9495977 7.90600855 47.8125 20.5 C48.36679687 21.01820313 48.92109375 21.53640625 49.4921875 22.0703125 C60.43304065 33.36600414 65.3669634 50.65448555 65.23046875 65.93676758 C64.66904479 81.71804419 58.91920066 98.11426 47.84375 109.66796875 C40.2585257 116.50925759 32.40088783 121.92538173 22.8125 125.5 C22.03390625 125.81839844 21.2553125 126.13679687 20.453125 126.46484375 C4.61682822 131.93693993 -14.31162859 129.24265041 -29.1875 122.5 C-44.01602273 114.70929711 -55.62380263 101.34810766 -61.1875 85.5 C-66.55155667 67.15838689 -65.07780801 49.54390078 -56.06640625 32.6875 C-49.57929305 21.68233498 -40.97021034 13.23824722 -29.75 7.125 C-28.87408203 6.64244751 -28.87408203 6.64244751 -27.98046875 6.15014648 C-19.09315609 1.56216835 -9.93084522 -0.0662566 0 0 Z " fill="#343741" transform="translate(499.1875,638.5)"/>
<path d="M0 0 C10.90269261 8.28172314 18.06351621 18.30618454 23 31 C23.32097656 31.78117188 23.64195312 32.56234375 23.97265625 33.3671875 C29.24858983 48.72874296 26.87389742 66.7556008 20.5625 81.31640625 C12.53703533 97.65671532 -0.88493747 108.84134542 -18 115 C-33.26174979 119.42089543 -50.61024176 118.71522051 -65 112 C-66.0415625 111.5153125 -67.083125 111.030625 -68.15625 110.53125 C-84.44199979 101.96863929 -94.43019165 87.5103391 -100.30859375 70.40234375 C-105.33946369 52.92220243 -101.85627075 34.59856095 -93.3515625 18.90234375 C-85.09764764 4.63765319 -71.07117176 -5.44737577 -55.39453125 -10.19140625 C-36.00077053 -14.41701629 -16.42271823 -10.8291123 0 0 Z " fill="#343741" transform="translate(388,556)"/>
<path d="M0 0 C13.59800835 10.10938824 24.07941441 25.10030083 27 42 C28.75444291 60.92529494 25.65798093 79.05160097 13.48828125 94.23046875 C7.87411387 100.85069004 1.68559515 105.91051785 -6 110 C-6.87269531 110.47050781 -7.74539063 110.94101562 -8.64453125 111.42578125 C-23.76482962 118.93058527 -40.17058975 120.11715819 -56.26953125 115.3125 C-74.47937773 108.9056849 -86.60258244 98.04367496 -95.75 81.125 C-102.25378415 67.1729878 -103.62952298 49.69442977 -99.375 34.8125 C-92.57347597 16.50804761 -80.56669289 2.6300212 -63 -6 C-41.65680675 -14.44514841 -19.43292077 -12.33111306 0 0 Z " fill="#343740" transform="translate(351,385)"/>
<path d="M0 0 C30.03 0 60.06 0 91 0 C91 26.07 91 52.14 91 79 C60.97 79 30.94 79 0 79 C0 52.93 0 26.86 0 0 Z " fill="#79CC50" transform="translate(695,420)"/>
<path d="M0 0 C30.03 0 60.06 0 91 0 C91 24.42 91 48.84 91 74 C60.97 74 30.94 74 0 74 C0 49.58 0 25.16 0 0 Z " fill="#7878C9" transform="translate(695,579)"/>
<path d="M0 0 C1.09488739 -0.00960754 2.18977478 -0.01921509 3.31784058 -0.02911377 C4.48670807 -0.03336365 5.65557556 -0.03761353 6.85986328 -0.04199219 C8.07537872 -0.04769226 9.29089417 -0.05339233 10.54324341 -0.05926514 C13.11020034 -0.06869468 15.67716927 -0.07524097 18.24414062 -0.07910156 C22.15923234 -0.08881523 26.07380069 -0.11986235 29.98876953 -0.15136719 C32.48746434 -0.1578971 34.98616289 -0.16314762 37.48486328 -0.16699219 C38.64968231 -0.17933899 39.81450134 -0.19168579 41.01461792 -0.20440674 C48.35641692 -0.18439799 54.78925506 0.11560972 60.58251953 5.13378906 C61.13037109 5.8234375 61.67822266 6.51308594 62.24267578 7.22363281 C62.80857422 7.91585937 63.37447266 8.60808594 63.95751953 9.32128906 C66.42714206 12.69286069 66.427245 14.83549177 66.41870117 18.98779297 C66.41858032 20.22601807 66.41845947 21.46424316 66.41833496 22.73999023 C66.41321899 24.04685791 66.40810303 25.35372559 66.40283203 26.70019531 C66.40182495 27.89733154 66.40081787 29.09446777 66.39978027 30.32788086 C66.3945352 34.81397454 66.38057403 39.30005461 66.36767578 43.78613281 C66.34705078 53.80988281 66.32642578 63.83363281 66.30517578 74.16113281 C36.27517578 74.16113281 6.24517578 74.16113281 -24.69482422 74.16113281 C-24.79794922 64.42613281 -24.90107422 54.69113281 -25.00732422 44.66113281 C-25.05284424 41.60154297 -25.09836426 38.54195312 -25.14526367 35.38964844 C-25.15987465 32.94890437 -25.17261387 30.50814807 -25.18310547 28.06738281 C-25.2086853 26.81280273 -25.23426514 25.55822266 -25.26062012 24.265625 C-25.26426602 16.92131445 -24.66722048 11.7819705 -19.69482422 6.16113281 C-17.66748047 4.32128906 -17.66748047 4.32128906 -15.75732422 3.22363281 C-15.12955078 2.84335938 -14.50177734 2.46308594 -13.85498047 2.07128906 C-9.42953889 0.20668167 -4.75050673 0.03388044 0 0 Z " fill="#EB4D4E" transform="translate(719.69482421875,185.8388671875)"/>
<path d="M0 0 C8.93559198 6.09600153 14.44565512 14.48385056 17.76953125 24.65625 C20.18671285 37.48764393 17.82347006 49.62712043 10.84375 60.55859375 C3.9337385 70.22283153 -5.35753739 75.9271545 -16.94140625 78.40625 C-28.16394132 80.23850062 -38.96337717 77.84061096 -48.5 71.58984375 C-57.67491293 64.78614987 -64.29824272 55.44282568 -66.5625 44.05078125 C-67.99659381 31.56968357 -66.11357166 20.35066372 -58.625 10.03515625 C-43.11052321 -8.45515768 -20.85431996 -12.18422285 0 0 Z " fill="#EB4E4E" transform="translate(470.8125,275.125)"/>
<path d="M0 0 C0.76441406 0.42410156 1.52882813 0.84820313 2.31640625 1.28515625 C11.96078741 7.14358744 18.37085624 15.33062885 22 26 C24.63434147 38.74953722 23.17223985 50.59098029 16.3125 61.75 C9.51231576 71.13425425 0.3905639 77.50540534 -11 80 C-24.78616643 80.83345506 -35.93709676 80.15977553 -46.93359375 70.9140625 C-56.07837146 62.44347445 -61.23507937 53.0873908 -62.1875 40.52734375 C-62.48572068 28.46804511 -58.56904347 19.59972946 -51.75 9.75 C-38.43447855 -3.56552145 -17.22422217 -9.99814705 0 0 Z " fill="#7ACB50" transform="translate(519,665)"/>
<path d="M0 0 C8.41616105 6.26536433 14.82257483 15.35712759 16.75 25.8125 C17.46180126 38.98082335 16.75974291 49.85059471 8.75 60.8125 C8.31945312 61.41964844 7.88890625 62.02679687 7.4453125 62.65234375 C1.48011144 70.35318241 -7.68411777 75.28549242 -17.25 76.8125 C-29.40675848 77.95277552 -39.88626178 76.97811007 -50 69.5625 C-58.81416449 62.16743176 -65.67388653 53.51802562 -67.25 41.8125 C-68.2248915 29.86269364 -66.84883195 18.01018984 -58.86328125 8.578125 C-58.06470703 7.70414063 -58.06470703 7.70414063 -57.25 6.8125 C-56.74855469 6.20921875 -56.24710937 5.6059375 -55.73046875 4.984375 C-41.42895257 -11.02218812 -17.05501606 -10.9785283 0 0 Z " fill="#FDDA38" transform="translate(375.25,574.1875)"/>
<path d="M0 0 C8.9277579 6.7861668 15.23052663 15.22107374 18.10546875 26.16796875 C19.82878924 39.75618822 17.39435195 52.08589515 9.10546875 63.16796875 C1.25877523 71.9018128 -9.47916273 77.26973939 -21.1875 78.38671875 C-32.80564254 78.83001831 -42.81626464 75.37759062 -51.89453125 68.16796875 C-61.0649499 59.58322389 -65.68985822 50.11584905 -66.28198242 37.55883789 C-66.56150167 25.95128993 -63.36880416 16.06938218 -55.77734375 7.09765625 C-40.68772078 -8.36764198 -18.55875143 -11.74636224 0 0 Z " fill="#4E9BD0" transform="translate(337.89453125,402.83203125)"/>
<path d="M0 0 C27.06 0 54.12 0 82 0 C80.02856578 6.57144742 78.00034137 12.96150712 75.59375 19.36328125 C75.27266266 20.22503967 74.95157532 21.0867981 74.62075806 21.97467041 C73.58372611 24.75516222 72.54202507 27.533876 71.5 30.3125 C70.77569443 32.25050072 70.05157497 34.18857102 69.32763672 36.12670898 C64.02619624 50.30829582 58.69119284 64.47700102 53.28662109 78.61962891 C52.14601365 81.61637476 51.0145081 84.61638338 49.88751221 87.61827087 C48.74260813 90.66410747 47.58911145 93.70669432 46.4375 96.75 C46.01936035 97.87092041 45.6012207 98.99184082 45.17041016 100.14672852 C44.78288574 101.16565186 44.39536133 102.1845752 43.99609375 103.234375 C43.65763428 104.13381836 43.3191748 105.03326172 42.97045898 105.95996094 C42 108 42 108 40 109 C39.44196184 107.51189823 38.88392575 106.02379569 38.32589722 104.53569031 C37.80080204 103.135461 37.27567405 101.735244 36.7505188 100.33503723 C35.18303158 96.1555218 33.6161874 91.97576676 32.05029297 87.7956543 C28.42488412 78.12005431 24.79338426 68.44679479 21.14861679 58.77847099 C18.95955326 52.9715831 16.77301072 47.16374968 14.58792496 41.35536385 C13.22034229 37.72058568 11.85128519 34.08637625 10.47900391 30.45336914 C9.16841158 26.98360862 7.86145854 23.51249843 6.55712509 20.04038048 C6.07065059 18.74739639 5.5828356 17.45491575 5.09360123 16.1629734 C4.41837078 14.37928259 3.74837275 12.59361365 3.07861328 10.80786133 C2.69971954 9.80265945 2.32082581 8.79745758 1.93045044 7.76179504 C1 5 1 5 0 0 Z " fill="#737C84" transform="translate(699,675)"/>
<path d="M0 0 C2.4754649 2.4754649 2.93864289 4.42800236 3.98828125 7.765625 C4.36251221 8.95430176 4.73674316 10.14297852 5.12231445 11.36767578 C5.52015708 12.66144178 5.91685911 13.955559 6.3125 15.25 C6.51386566 15.90514587 6.71523132 16.56029175 6.92269897 17.23529053 C13.24488119 37.88173221 17.31593366 58.57104175 20 80 C20.10602539 80.82491943 20.21205078 81.64983887 20.32128906 82.49975586 C21.4045202 92.34687048 21.24390508 102.293695 21.25 112.1875 C21.25101212 113.65990143 21.25101212 113.65990143 21.25204468 115.16204834 C21.22209676 142.58258558 20.74795054 177.25204946 0 198 C0 132.66 0 67.32 0 0 Z " fill="#F5F1E5" transform="translate(809,388)"/>
<path d="M0 0 C0.33 0 0.66 0 1 0 C1.00423194 0.84575686 1.00846388 1.69151373 1.01282406 2.56289959 C1.11609831 23.13560609 1.22473127 43.70827819 1.33933926 64.2809248 C1.39463321 74.22967038 1.44810894 84.17841955 1.49731445 94.12719727 C1.54020316 102.79786022 1.58649299 111.46849717 1.63687855 120.13911992 C1.66344171 124.73074574 1.68829384 129.32236652 1.70907402 133.91402245 C1.72868498 138.23545393 1.75284205 142.55683611 1.78049088 146.87822342 C1.78983771 148.46448304 1.79752145 150.05075346 1.80341911 151.63702965 C1.81172064 153.80297013 1.82600841 155.96879223 1.84178162 158.13468933 C1.84823417 159.34684711 1.85468672 160.55900488 1.8613348 161.80789471 C1.98524412 164.66031614 2.34390816 167.22774742 3 170 C2.01 170 1.02 170 0 170 C0 113.9 0 57.8 0 0 Z " fill="#EEE9DC" transform="translate(810,413)"/>
<path d="M0 0 C2.97 0 5.94 0 9 0 C9 23.1 9 46.2 9 70 C8.01 70 7.02 70 6 70 C6 47.23 6 24.46 6 1 C4.02 1 2.04 1 0 1 C0 0.67 0 0.34 0 0 Z " fill="#C8C8C6" transform="translate(664,596)"/>
<path d="M0 0 C4.57765156 3.74535128 8.78614797 7.73410156 12.9375 11.9375 C16.92810636 15.97770222 20.98254699 19.84643355 25.30859375 23.53125 C27.66285302 25.57559523 29.83014011 27.76233199 32 30 C28.52545149 29.41154904 26.80404343 28.2092679 24.27734375 25.7890625 C23.57859131 25.12600098 22.87983887 24.46293945 22.15991211 23.77978516 C21.42651611 23.06870605 20.69312012 22.35762695 19.9375 21.625 C19.1854126 20.90489746 18.4333252 20.18479492 17.65844727 19.44287109 C15.4307633 17.30355137 13.21425773 15.15320283 11 13 C10.38382812 12.40574219 9.76765625 11.81148437 9.1328125 11.19921875 C2.35848937 4.65903121 2.35848937 4.65903121 0 2 C0 1.34 0 0.68 0 0 Z " fill="#F5F5F4" transform="translate(257,728)"/>
<path d="M0 0 C1.8572168 0.08507812 1.8572168 0.08507812 3.75195312 0.171875 C6.77284868 0.31183927 9.79271521 0.46308296 12.8125 0.625 C12.8125 0.955 12.8125 1.285 12.8125 1.625 C11.94560547 1.64481934 11.07871094 1.66463867 10.18554688 1.68505859 C6.93499032 1.76367307 3.68477343 1.8503817 0.43457031 1.94238281 C-0.96573735 1.98040313 -2.36613374 2.01530034 -3.76660156 2.046875 C-11.11990628 2.21471077 -18.12464087 2.38600084 -25.1875 4.625 C-25.1875 3.635 -25.1875 2.645 -25.1875 1.625 C-16.65457797 -0.39109805 -8.72329875 -0.47025869 0 0 Z " fill="#D0D1D1" transform="translate(722.1875,163.375)"/>
<path d="M0 0 C0 0.99 0 1.98 0 3 C-1.59328125 3.09087891 -1.59328125 3.09087891 -3.21875 3.18359375 C-13.63715103 3.79270238 -13.63715103 3.79270238 -24 5 C-17.76814744 -1.23185256 -8.155952 -0.34035657 0 0 Z " fill="#E6E3DA" transform="translate(504,636)"/>
<path d="M0 0 C2 2 2 2 2.13525391 3.97119141 C2.08288574 4.75671387 2.03051758 5.54223633 1.9765625 6.3515625 C1.925 7.20234375 1.8734375 8.053125 1.8203125 8.9296875 C1.75585938 9.81914063 1.69140625 10.70859375 1.625 11.625 C1.56828125 12.5221875 1.5115625 13.419375 1.453125 14.34375 C1.31145247 16.56328624 1.1600296 18.78172402 1 21 C0.01 21 -0.98 21 -2 21 C-2.02698189 19.37509046 -2.04638757 17.75005367 -2.0625 16.125 C-2.07410156 15.22007812 -2.08570313 14.31515625 -2.09765625 13.3828125 C-2 11 -2 11 -1 9 C-0.77532169 7.46331135 -0.59203195 5.92031946 -0.4375 4.375 C-0.35371094 3.55773437 -0.26992188 2.74046875 -0.18359375 1.8984375 C-0.12300781 1.27195312 -0.06242187 0.64546875 0 0 Z " fill="#EDE9DF" transform="translate(285,592)"/>
<path d="M0 0 C0.66 0 1.32 0 2 0 C1.67 2.31 1.34 4.62 1 7 C1.66 7 2.32 7 3 7 C3 10.96 3 14.92 3 19 C2.01 18.67 1.02 18.34 0 18 C-0.19384179 15.18780295 -0.38036603 12.37545804 -0.5625 9.5625 C-0.61857422 8.76005859 -0.67464844 7.95761719 -0.73242188 7.13085938 C-0.8616295 5.08937889 -0.9351273 3.04453631 -1 1 C-0.67 0.67 -0.34 0.34 0 0 Z " fill="#EAE7DD" transform="translate(414,595)"/>
<path d="M0 0 C7.04440079 -0.21133202 13.24112575 -0.07965362 20 2 C20 2.33 20 2.66 20 3 C17.04112541 3.08069658 14.0844341 3.14034665 11.125 3.1875 C10.28324219 3.21263672 9.44148438 3.23777344 8.57421875 3.26367188 C7.76855469 3.27333984 6.96289062 3.28300781 6.1328125 3.29296875 C5.38918457 3.3086792 4.64555664 3.32438965 3.87939453 3.34057617 C2.94909424 3.17199097 2.94909424 3.17199097 2 3 C1.34 2.01 0.68 1.02 0 0 Z " fill="#ECE9E0" transform="translate(492,815)"/>
<path d="M0 0 C1.98 0 3.96 0 6 0 C6 0.66 6 1.32 6 2 C6.86625 1.79375 7.7325 1.5875 8.625 1.375 C12.36428602 0.95952378 14.54942141 1.60333724 18 3 C18 3.66 18 4.32 18 5 C15.37243412 4.74562289 12.74928226 4.47235799 10.125 4.1875 C9.00544922 4.08211914 9.00544922 4.08211914 7.86328125 3.97460938 C5.89448223 3.75289777 3.94363342 3.38420661 2 3 C1.34 2.01 0.68 1.02 0 0 Z " fill="#E7E7E6" transform="translate(558,164)"/>
<path d="M0 0 C0.33 0 0.66 0 1 0 C1.09507063 6.43311296 1.15316726 12.65758005 0 19 C-0.33 19 -0.66 19 -1 19 C-1.97352262 13.40224495 -2.61204357 7.67437001 -2 2 C-1.34 1.34 -0.68 0.68 0 0 Z " fill="#EDE9DE" transform="translate(192,476)"/>
<path d="M0 0 C4.55700425 0.52484692 7.192874 2.31507303 10.8125 5.0625 C11.78832031 5.79597656 12.76414062 6.52945312 13.76953125 7.28515625 C14.87361328 8.13400391 14.87361328 8.13400391 16 9 C15.34 9.66 14.68 10.32 14 11 C13.57589844 10.61328125 13.15179688 10.2265625 12.71484375 9.828125 C8.69695194 6.2605903 4.74596229 3.51826571 0 1 C0 0.67 0 0.34 0 0 Z " fill="#EAE8E3" transform="translate(476,253)"/>
<path d="M0 0 C0.66 0 1.32 0 2 0 C1.42906864 3.3114019 0.45395174 4.75054423 -2 7 C-2.33 7.66 -2.66 8.32 -3 9 C-3.66 9 -4.32 9 -5 9 C-3.7580393 5.56072421 -2.44259716 2.74792181 0 0 Z " fill="#F0DE38" transform="translate(317,582)"/>
</svg>
